<svg width="294" height="294" viewBox="0 0 294 294" fill="none" xmlns="http://www.w3.org/2000/svg">
<path d="M262 61H32C14.3269 61 0 75.3269 0 93V243C0 260.673 14.3269 275 32 275H262C279.673 275 294 260.673 294 243V93C294 75.3269 279.673 61 262 61Z" fill="#EA003D"/>
<path d="M53.3301 85H212.214C226.715 85 238.804 96.0475 239.822 110.403C242.778 152.122 242.69 183.788 239.771 225.506C238.763 239.904 226.655 251 212.123 251H53.2552C38.4881 251 26.2698 239.552 25.5269 224.888C23.4658 184.204 23.5014 152.74 25.5731 111.186C26.306 96.4871 38.5379 85 53.3301 85Z" stroke="white" stroke-width="8"/>
<path d="M76 275H56C53.2386 275 51 277.239 51 280C51 282.761 53.2386 285 56 285H76C78.7614 285 81 282.761 81 280C81 277.239 78.7614 275 76 275Z" fill="#EA003D"/>
<path d="M236 275H216C213.239 275 211 277.239 211 280C211 282.761 213.239 285 216 285H236C238.761 285 241 282.761 241 280C241 277.239 238.761 275 236 275Z" fill="#EA003D"/>
<path d="M270 126C275.523 126 280 121.523 280 116C280 110.477 275.523 106 270 106C264.477 106 260 110.477 260 116C260 121.523 264.477 126 270 126Z" fill="white"/>
<path d="M270 168C275.523 168 280 163.523 280 158C280 152.477 275.523 148 270 148C264.477 148 260 152.477 260 158C260 163.523 264.477 168 270 168Z" fill="white"/>
<path d="M186 33C192.627 33 198 27.6274 198 21C198 14.3726 192.627 9 186 9C179.373 9 174 14.3726 174 21C174 27.6274 179.373 33 186 33Z" fill="#EA003D"/>
<path d="M175.335 26.683L153.758 64.0563C152.101 66.926 153.084 70.5956 155.954 72.2524C158.824 73.9093 162.493 72.926 164.15 70.0563L185.728 32.683C187.385 29.8133 186.401 26.1437 183.532 24.4869C180.662 22.83 176.992 23.8133 175.335 26.683Z" fill="#EA003D"/>
<path d="M70 33C76.6274 33 82 27.6274 82 21C82 14.3726 76.6274 9 70 9C63.3726 9 58 14.3726 58 21C58 27.6274 63.3726 33 70 33Z" fill="#EA003D"/>
<path d="M80.6665 22.1074L135.169 60.2705C137.884 62.1711 138.543 65.9124 136.643 68.6268C134.742 71.3413 131.001 72.0009 128.286 70.1003L73.7836 31.9372C71.0692 30.0366 70.4095 26.2953 72.3102 23.5809C74.2108 20.8664 77.9521 20.2067 80.6665 22.1074Z" fill="#EA003D"/>
<path d="M155.327 167.588C153.242 167.293 151.391 168.957 149.763 170.003C146.247 172.248 143.143 174.852 140.146 177.786C138.295 179.602 135.79 182.017 135.128 184.629C134.824 185.836 135.199 187.223 135.441 188.404C135.861 190.461 136.505 192.465 137.15 194.46C137.877 196.702 138.719 198.905 139.672 201.062C140.146 202.144 140.665 203.217 141.175 204.291C141.649 205.293 141.962 205.883 143.125 206.035C144.431 206.205 145.737 206.008 147.034 205.955C148.949 205.883 150.863 205.695 152.75 205.373C155.246 204.953 157.76 204.497 160.148 203.647C162.358 202.851 164.889 201.616 166.168 199.586C168.915 195.22 170.578 190.264 171.491 185.21C171.759 183.752 172.019 182.267 172.01 180.773C172.019 179.458 172.135 178.108 171.187 177.097C169.487 175.272 167.474 173.76 165.39 172.392C162.304 170.388 159.075 168.125 155.327 167.588ZM94.6321 146.495C92.691 147.523 91.1703 149.974 90.0342 151.772C87.7621 155.351 85.9283 159.483 85.0695 163.643C84.4165 166.828 85.8388 169.932 86.9033 172.875C87.941 175.71 89.7479 177.956 91.7249 180.183C92.2258 180.755 92.8609 181.185 93.3619 181.748C93.9344 182.384 94.659 182.983 95.4104 183.403C95.9471 183.707 96.4301 183.296 96.9758 183.171C98.416 182.822 99.4895 182.088 100.795 181.4C101.967 180.773 103.175 180.246 104.356 179.619C106.887 178.26 109.902 177.142 112.111 175.272C112.398 175.03 112.773 174.726 112.854 174.342C113.06 173.384 112.773 172.141 112.729 171.166C112.675 169.797 112.657 168.438 112.648 167.069C112.639 163.974 112.755 160.879 112.755 157.784C112.782 156.057 112.997 154.34 112.916 152.613C112.773 150.046 110 149.134 107.916 148.615C104.991 147.89 102.048 146.897 99.0601 146.53C97.8256 146.396 95.7861 145.886 94.6321 146.495ZM170.57 138.775C170.847 136.834 169.55 134.499 168.61 132.763C166.75 129.302 164.084 125.902 160.756 123.201C158.216 121.134 154.477 120.294 150.997 119.945C144.762 119.31 140.003 119.694 138.688 119.9C137.364 120.106 136.121 120.508 135.414 121.385C134.019 123.085 133.777 125.518 133.482 127.611C133.053 130.599 132.677 133.676 133.07 136.682C133.133 137.218 133.214 137.925 133.473 138.399C133.965 139.276 135.003 139.714 136.031 140.17C141.363 142.523 151.534 148.346 153.189 149.134C155.658 150.323 158.287 148.74 160.112 147.461C162.644 145.681 165.462 144.008 167.698 141.995C168.619 141.172 170.4 139.92 170.57 138.775ZM93.9881 205.32C94.2027 205.651 94.4085 205.901 94.7395 206.151C95.2672 206.554 95.7682 206.965 96.2691 207.404C100.643 211.241 105.769 214.131 110.85 216.904C112.38 217.745 113.838 218.603 115.394 219.382C117.076 220.214 118.812 220.777 120.618 221.278C121.844 221.618 123.087 221.949 124.358 222.074C125.538 222.191 126.746 222.468 127.936 222.486C128.616 222.495 129.242 222.468 129.904 222.378C129.582 221.86 129.295 221.198 129.018 220.643C128.58 219.775 128.133 218.899 127.685 218.04C127.166 217.047 126.764 216.009 126.236 215.025C125.825 214.274 125.288 213.496 124.545 213.057C123.553 212.467 122.604 211.885 121.522 211.447C117.568 209.837 114.026 207.565 110.349 205.436C108.489 204.353 106.664 203.199 104.91 201.938C103.971 201.267 103.059 200.57 102.066 199.97C101.86 199.836 101.654 199.675 101.413 199.639C101.198 199.603 100.867 199.612 100.652 199.639C100.456 199.666 100.223 199.702 100.035 199.738C98.747 200.006 97.3515 200.346 96.0187 200.641C94.7484 200.927 93.3261 201.026 92.1095 201.491C91.6354 201.67 91.6891 201.938 91.8769 202.35C92.1632 202.994 92.5836 203.584 93.0219 204.121C93.3171 204.506 93.6839 204.863 93.9881 205.32Z" fill="white"/>
<path d="M109.464 154.223C109.161 154.224 108.864 154.138 108.607 153.977C108.351 153.815 108.146 153.585 108.015 153.312C107.884 153.039 107.833 152.734 107.867 152.433C107.902 152.132 108.021 151.847 108.211 151.611C108.65 151.075 118.973 138.426 137.436 135.563C137.644 135.532 137.856 135.541 138.06 135.591C138.264 135.642 138.457 135.732 138.626 135.856C138.796 135.981 138.939 136.138 139.048 136.318C139.157 136.497 139.229 136.697 139.261 136.905C139.292 137.113 139.283 137.325 139.233 137.529C139.182 137.734 139.092 137.926 138.968 138.095C138.843 138.265 138.686 138.408 138.506 138.517C138.326 138.626 138.127 138.698 137.919 138.73C120.735 141.405 110.805 153.508 110.707 153.624C110.385 154.018 109.929 154.223 109.464 154.223ZM105.653 210.382C105.188 210.382 104.723 210.186 104.409 209.792C103.971 209.255 93.8002 196.481 94.9005 177.839C94.9542 176.954 95.7056 176.274 96.5912 176.327C97.4768 176.381 98.1477 177.141 98.094 178.027C97.0742 195.444 106.798 207.654 106.896 207.77C107.46 208.459 107.344 209.47 106.664 210.025C106.368 210.257 106.011 210.382 105.653 210.382ZM117.747 216.68C116.924 216.68 116.226 216.054 116.155 215.213C116.083 214.327 116.736 213.549 117.622 213.478C117.774 213.469 133.357 212.002 145.183 199.245C145.474 198.934 145.876 198.751 146.302 198.736C146.728 198.721 147.142 198.875 147.455 199.165C148.108 199.764 148.143 200.784 147.535 201.437C134.833 215.124 118.57 216.617 117.89 216.68C117.836 216.671 117.792 216.68 117.747 216.68ZM95.4641 152.3C94.7127 152.3 94.0417 151.772 93.8986 151.003C93.8092 150.556 91.7875 139.955 96.1439 127.396C96.4391 126.555 97.3426 126.108 98.1835 126.403C99.0154 126.698 99.4627 127.602 99.1764 128.443C95.0973 140.197 97.0206 150.278 97.0474 150.386C97.2174 151.253 96.6538 152.103 95.7772 152.273C95.6788 152.291 95.5714 152.3 95.4641 152.3ZM142.078 125.992C141.748 125.992 141.408 125.884 141.13 125.67C141.05 125.616 132.704 119.56 120.386 118.209C119.509 118.12 118.865 117.324 118.964 116.447C119.053 115.561 119.849 114.935 120.726 115.025C133.947 116.465 142.66 122.816 143.027 123.084C143.733 123.612 143.885 124.614 143.358 125.33C143.054 125.768 142.57 125.992 142.078 125.992ZM182.565 152.085C182.1 152.085 181.635 151.88 181.313 151.486C173.495 141.816 163.923 138.104 163.834 138.068C163.436 137.918 163.114 137.616 162.938 137.229C162.762 136.841 162.746 136.4 162.894 136.002C163.207 135.17 164.138 134.758 164.961 135.062C165.39 135.223 175.445 139.123 183.8 149.464C184.363 150.153 184.247 151.164 183.558 151.719C183.272 151.969 182.914 152.085 182.565 152.085ZM154.253 173.769C154.191 173.769 154.11 173.76 154.047 173.751C153.839 173.724 153.637 173.656 153.455 173.551C153.272 173.446 153.112 173.306 152.984 173.139C152.856 172.972 152.763 172.781 152.709 172.577C152.655 172.374 152.641 172.162 152.67 171.953C154.718 156.621 152.706 145.296 152.679 145.18C152.518 144.312 153.09 143.471 153.967 143.319C154.844 143.149 155.675 143.739 155.836 144.607C155.917 145.09 157.965 156.549 155.845 172.382C155.738 173.188 155.049 173.769 154.253 173.769ZM140.334 186.865C140.28 186.865 140.245 186.865 140.191 186.856C120.261 185.094 107.147 173.849 106.592 173.375C106.272 173.096 106.075 172.701 106.045 172.277C106.015 171.853 106.154 171.434 106.431 171.112C107.013 170.441 108.023 170.37 108.694 170.951C108.828 171.059 121.62 181.999 140.477 183.663C140.887 183.701 141.267 183.896 141.537 184.207C141.807 184.518 141.948 184.92 141.929 185.332C141.911 185.743 141.735 186.132 141.438 186.417C141.141 186.703 140.746 186.863 140.334 186.865ZM83.0926 168.482C81.7418 168.482 80.2659 168.312 78.8883 167.785C78.4904 167.634 78.1683 167.332 77.9923 166.945C77.8163 166.558 77.8007 166.117 77.949 165.718C78.271 164.895 79.1835 164.475 80.0243 164.779C82.9763 165.906 86.9212 164.752 86.9659 164.743C87.8068 164.493 88.7014 164.967 88.9518 165.825C89.2112 166.666 88.7282 167.561 87.8873 167.82C87.7531 167.856 85.642 168.482 83.0926 168.482ZM170.525 182.169C169.917 182.169 169.344 181.82 169.076 181.238C168.7 180.442 169.058 179.485 169.854 179.109C169.943 179.065 179.264 174.655 186.358 164.493C186.859 163.759 187.861 163.58 188.586 164.09C189.31 164.6 189.489 165.593 188.988 166.317C181.385 177.222 171.616 181.82 171.205 182.017C170.972 182.115 170.748 182.169 170.525 182.169ZM170.525 209.246C170.167 209.246 169.809 209.13 169.505 208.898C165.837 206.008 162.286 200.757 162.134 200.543C161.633 199.791 161.83 198.771 162.581 198.261C163.324 197.761 164.352 197.957 164.853 198.718C164.889 198.762 168.271 203.754 171.536 206.321C172.242 206.885 172.368 207.914 171.813 208.629C171.482 209.023 171.008 209.246 170.525 209.246Z" fill="white"/>
<path d="M133.249 225.25C101.815 225.25 76.2494 199.684 76.2494 168.25C76.2494 136.824 101.815 111.25 133.249 111.25C164.683 111.25 190.249 136.824 190.249 168.241C190.249 199.684 164.675 225.25 133.249 225.25ZM133.249 117.663C105.358 117.663 82.6632 140.358 82.6632 168.25C82.6632 196.141 105.349 218.836 133.24 218.836C161.132 218.836 183.827 196.141 183.827 168.25C183.836 140.358 161.132 117.663 133.249 117.663Z" fill="white"/>
</svg>
