<svg width="120" height="40" viewBox="0 0 120 40" fill="none" xmlns="http://www.w3.org/2000/svg">
<path fill-rule="evenodd" clip-rule="evenodd" d="M52.4625 21.1875C52.0175 21.1875 51.5625 21.1475 51.0975 21.0675C50.6376 20.9925 50.2076 20.8975 49.8075 20.7825C49.4125 20.6625 49.0925 20.5425 48.8475 20.4225L49.0051 18.5175C49.35 18.7125 49.7076 18.88 50.0775 19.02C50.4525 19.16 50.8275 19.2675 51.2025 19.3425C51.5826 19.4175 51.9525 19.455 52.3125 19.455C52.6875 19.455 53.0201 19.4075 53.3101 19.3125C53.6 19.2175 53.8251 19.07 53.9851 18.87C54.15 18.67 54.2325 18.415 54.2325 18.105C54.2325 17.79 54.135 17.53 53.94 17.325C53.75 17.12 53.4725 16.9425 53.1075 16.7925C52.7476 16.6375 52.315 16.485 51.81 16.335C51.15 16.135 50.585 15.91 50.115 15.66C49.65 15.405 49.2925 15.0825 49.0425 14.6925C48.7976 14.3025 48.675 13.8 48.675 13.185C48.675 12.585 48.81 12.0525 49.08 11.5875C49.355 11.1175 49.765 10.7525 50.3101 10.4925C50.855 10.2275 51.5375 10.095 52.3575 10.095C52.6825 10.095 53.01 10.1175 53.34 10.1625C53.67 10.2025 53.9875 10.26 54.2925 10.335C54.5975 10.405 54.8775 10.4875 55.1325 10.5825C55.3925 10.6725 55.6175 10.7675 55.8075 10.8675L55.635 12.7725C55.3251 12.5725 54.9975 12.4025 54.6525 12.2625C54.3125 12.1225 53.975 12.0175 53.64 11.9475C53.3101 11.8775 53.0051 11.8425 52.725 11.8425C52.39 11.8425 52.0826 11.89 51.8025 11.985C51.5275 12.075 51.305 12.215 51.135 12.405C50.97 12.59 50.8876 12.825 50.8876 13.11C50.8876 13.385 50.9625 13.615 51.1125 13.8C51.2626 13.985 51.4975 14.15 51.8176 14.295C52.1376 14.44 52.5476 14.59 53.0476 14.745C53.9025 15.005 54.5775 15.275 55.0725 15.555C55.5676 15.83 55.9175 16.16 56.1226 16.545C56.3326 16.93 56.4375 17.4125 56.4375 17.9925C56.4375 18.6225 56.2976 19.1775 56.0175 19.6575C55.7425 20.1375 55.3125 20.5125 54.7276 20.7825C54.1425 21.0525 53.3876 21.1875 52.4625 21.1875ZM58.0981 21V19.3125V17.4975V13.875V12.0225V10.305H59.7856H62.2156C63.0656 10.305 63.7731 10.4125 64.3381 10.6275C64.9031 10.8425 65.3281 11.19 65.6131 11.67C65.8981 12.145 66.0406 12.78 66.0406 13.575C66.0406 14.26 65.9156 14.8675 65.6656 15.3975C65.4156 15.9225 65.0106 16.335 64.4506 16.635C63.8906 16.93 63.1381 17.0775 62.1931 17.0775H61.4056H60.5806H60.1681V17.4975V19.3125V21H58.0981ZM61.7356 15.42H60.1681V14.205V12.3525V11.985H62.0731C62.2831 11.985 62.4956 12.005 62.7106 12.045C62.9256 12.085 63.1231 12.16 63.3031 12.27C63.4831 12.38 63.6281 12.5425 63.7381 12.7575C63.8481 12.9675 63.9031 13.2475 63.9031 13.5975C63.9031 14.0275 63.8256 14.3775 63.6706 14.6475C63.5206 14.9125 63.2856 15.1075 62.9656 15.2325C62.6456 15.3575 62.2356 15.42 61.7356 15.42ZM70.2571 20.745C70.9571 21.04 71.7796 21.1875 72.7246 21.1875C73.8846 21.1875 74.8696 20.9475 75.6796 20.4675C76.4896 19.9825 77.1046 19.3225 77.5246 18.4875C77.9446 17.6525 78.1546 16.705 78.1546 15.645C78.1546 14.875 78.0396 14.155 77.8096 13.485C77.5796 12.815 77.2346 12.225 76.7746 11.715C76.3146 11.205 75.7421 10.8075 75.0571 10.5225C74.3721 10.2375 73.5746 10.095 72.6646 10.095C71.4696 10.095 70.4646 10.3425 69.6496 10.8375C68.8396 11.3275 68.2271 11.995 67.8121 12.84C67.3971 13.68 67.1896 14.6175 67.1896 15.6525C67.1896 16.3925 67.2996 17.095 67.5196 17.76C67.7446 18.425 68.0821 19.015 68.5321 19.53C68.9871 20.045 69.5621 20.45 70.2571 20.745ZM74.1421 19.14C73.7321 19.34 73.2471 19.44 72.6871 19.44C72.1271 19.44 71.6396 19.34 71.2246 19.14C70.8096 18.94 70.4646 18.6625 70.1896 18.3075C69.9146 17.9525 69.7096 17.5475 69.5746 17.0925C69.4396 16.6375 69.3721 16.155 69.3721 15.645C69.3721 15.135 69.4421 14.6525 69.5821 14.1975C69.7221 13.7375 69.9296 13.33 70.2046 12.975C70.4846 12.62 70.8321 12.3425 71.2471 12.1425C71.6621 11.9425 72.1421 11.8425 72.6871 11.8425C73.2171 11.8425 73.6846 11.94 74.0896 12.135C74.4996 12.325 74.8421 12.595 75.1171 12.945C75.3971 13.29 75.6096 13.6925 75.7546 14.1525C75.8996 14.6125 75.9721 15.11 75.9721 15.645C75.9721 16.145 75.9046 16.6225 75.7696 17.0775C75.6396 17.5325 75.4371 17.94 75.1621 18.3C74.8921 18.655 74.5521 18.935 74.1421 19.14ZM79.9536 21V19.3125V17.4975V13.875V12.0225V10.305H81.0486H82.3986H83.8911C84.7411 10.305 85.4586 10.4025 86.0436 10.5975C86.6286 10.7875 87.0686 11.1025 87.3636 11.5425C87.6636 11.9825 87.8136 12.5775 87.8136 13.3275C87.8136 13.9325 87.6936 14.4825 87.4536 14.9775C87.2186 15.4725 86.8336 15.8675 86.2986 16.1625C86.0567 16.2948 85.7783 16.3975 85.4635 16.4705L86.4936 17.9025C86.7336 18.2325 86.9861 18.585 87.2511 18.96C87.5211 19.335 87.7836 19.7 88.0386 20.055C88.2986 20.41 88.5261 20.725 88.7211 21H86.3211C86.0261 20.57 85.7411 20.1575 85.4661 19.7625C85.1961 19.3625 84.9311 18.975 84.6711 18.6L83.5759 17.0025H82.0086V17.4975V19.3125V21H79.9536ZM83.5086 15.375H82.0086V14.205V12.39V11.985H83.8236C84.0386 11.985 84.2511 12.0025 84.4611 12.0375C84.6761 12.0725 84.8736 12.145 85.0536 12.255C85.2336 12.365 85.3761 12.525 85.4811 12.735C85.5911 12.945 85.6461 13.225 85.6461 13.575C85.6461 14.025 85.5661 14.3825 85.4061 14.6475C85.2461 14.9075 85.0061 15.095 84.6861 15.21C84.3711 15.32 83.9786 15.375 83.5086 15.375ZM92.5542 19.3125V21H94.6467V19.3125V17.4975V14.205V12.345V12.1425H95.2092H96.7467H98.0142V10.305H89.1792V12.1425H90.4467H91.9841H92.5542V12.345V14.205V17.4975V19.3125ZM49.1625 37V35.3125V33.4975V29.875V28.0225V26.305H56.1076V28.0525H54.585H52.6726H51.2175V28.3525V30.205V30.7675H52.74H54.465H55.8526V32.425H54.4276H52.7325H51.2175V33.1675V34.9825V35.2525H52.83H54.5775H56.16V37H49.1625ZM58.0981 35.3125V37H60.1606V35.3125V33.4975V32.5675H61.5556H63.2431H64.6756V30.8725H63.2806H61.5631H60.1606V30.205V28.345V28.0675H61.5031H63.4156H64.9381V26.305H58.0981V28.0225V29.8825V33.4975V35.3125ZM66.7782 37V35.3125V33.4975V29.8825V28.0225V26.305H68.9232V28.0225V29.8825V33.4975V35.3125V37H66.7782ZM71.2817 35.3125V37H73.3367V35.3125V33.4975V33.0025H74.904L75.9992 34.6C76.2592 34.975 76.5242 35.3625 76.7942 35.7625C77.0692 36.1575 77.3542 36.57 77.6492 37H80.0492C79.8542 36.725 79.6267 36.41 79.3667 36.055C79.1117 35.7 78.8492 35.335 78.5792 34.96C78.3142 34.585 78.0617 34.2325 77.8217 33.9025L76.7917 32.4705C77.1065 32.3975 77.3848 32.2948 77.6267 32.1625C78.1617 31.8675 78.5467 31.4725 78.7817 30.9775C79.0217 30.4825 79.1417 29.9325 79.1417 29.3275C79.1417 28.5775 78.9917 27.9825 78.6917 27.5425C78.3967 27.1025 77.9567 26.7875 77.3717 26.5975C76.7867 26.4025 76.0692 26.305 75.2192 26.305H73.7267H72.3767H71.2817V28.0225V29.875V33.4975V35.3125ZM73.3367 31.375H74.8367C75.3067 31.375 75.6992 31.32 76.0142 31.21C76.3342 31.095 76.5742 30.9075 76.7342 30.6475C76.8942 30.3825 76.9742 30.025 76.9742 29.575C76.9742 29.225 76.9192 28.945 76.8092 28.735C76.7042 28.525 76.5617 28.365 76.3817 28.255C76.2017 28.145 76.0042 28.0725 75.7892 28.0375C75.5792 28.0025 75.3667 27.985 75.1517 27.985H73.3367V28.39V30.205V31.375ZM82.2927 37.1875C82.0377 37.1875 81.8152 37.1325 81.6252 37.0225C81.4352 36.9175 81.2902 36.7725 81.1902 36.5875C81.0902 36.3975 81.0402 36.185 81.0402 35.95C81.0402 35.595 81.1527 35.305 81.3777 35.08C81.6077 34.855 81.9152 34.7425 82.3002 34.7425C82.5652 34.7425 82.7902 34.795 82.9752 34.9C83.1652 35 83.3102 35.1425 83.4102 35.3275C83.5102 35.5075 83.5602 35.715 83.5602 35.95C83.5602 36.305 83.4477 36.6 83.2227 36.835C83.0027 37.07 82.6927 37.1875 82.2927 37.1875ZM87.7226 36.79C88.4126 37.055 89.1876 37.1875 90.0476 37.1875C90.3426 37.1875 90.6401 37.1725 90.9401 37.1425C91.2401 37.1175 91.5301 37.075 91.8101 37.015C92.0951 36.955 92.3676 36.88 92.6276 36.79C92.8876 36.695 93.1226 36.585 93.3326 36.46L93.2051 34.5175C92.9701 34.6875 92.7326 34.8325 92.4926 34.9525C92.2526 35.0725 92.0101 35.1675 91.7651 35.2375C91.5201 35.3075 91.2751 35.36 91.0301 35.395C90.7851 35.425 90.5426 35.44 90.3026 35.44C89.6926 35.44 89.1576 35.3425 88.6976 35.1475C88.2426 34.9475 87.8626 34.6725 87.5576 34.3225C87.2526 33.9725 87.0226 33.57 86.8676 33.115C86.7176 32.655 86.6426 32.1675 86.6426 31.6525C86.6426 30.8575 86.7901 30.18 87.0851 29.62C87.3801 29.06 87.7851 28.6325 88.3001 28.3375C88.8201 28.0425 89.4101 27.895 90.0701 27.895C90.3851 27.895 90.7101 27.9275 91.0451 27.9925C91.3851 28.0575 91.7376 28.165 92.1026 28.315C92.4676 28.46 92.8426 28.6525 93.2276 28.8925L93.3926 26.9275C93.1926 26.8175 92.9601 26.715 92.6951 26.62C92.4351 26.52 92.1501 26.43 91.8401 26.35C91.5351 26.27 91.2126 26.2075 90.8726 26.1625C90.5376 26.1175 90.1976 26.095 89.8526 26.095C88.7426 26.095 87.7851 26.335 86.9801 26.815C86.1751 27.29 85.5526 27.9475 85.1126 28.7875C84.6776 29.6225 84.4601 30.5775 84.4601 31.6525C84.4601 32.4675 84.5876 33.215 84.8426 33.895C85.1026 34.57 85.4751 35.155 85.9601 35.65C86.4451 36.14 87.0326 36.52 87.7226 36.79ZM100.249 37.1875C99.304 37.1875 98.4815 37.04 97.7815 36.745C97.0865 36.45 96.5115 36.045 96.0565 35.53C95.6065 35.015 95.269 34.425 95.044 33.76C94.824 33.095 94.714 32.3925 94.714 31.6525C94.714 30.6175 94.9215 29.68 95.3365 28.84C95.7515 27.995 96.364 27.3275 97.174 26.8375C97.989 26.3425 98.994 26.095 100.189 26.095C101.099 26.095 101.897 26.2375 102.582 26.5225C103.267 26.8075 103.839 27.205 104.299 27.715C104.759 28.225 105.104 28.815 105.334 29.485C105.564 30.155 105.679 30.875 105.679 31.645C105.679 32.705 105.469 33.6525 105.049 34.4875C104.629 35.3225 104.014 35.9825 103.204 36.4675C102.394 36.9475 101.409 37.1875 100.249 37.1875ZM100.212 35.44C100.772 35.44 101.257 35.34 101.667 35.14C102.077 34.935 102.417 34.655 102.687 34.3C102.962 33.94 103.164 33.5325 103.294 33.0775C103.429 32.6225 103.497 32.145 103.497 31.645C103.497 31.11 103.424 30.6125 103.279 30.1525C103.134 29.6925 102.922 29.29 102.642 28.945C102.367 28.595 102.024 28.325 101.614 28.135C101.209 27.94 100.742 27.8425 100.212 27.8425C99.6665 27.8425 99.1865 27.9425 98.7715 28.1425C98.3565 28.3425 98.009 28.62 97.729 28.975C97.454 29.33 97.2465 29.7375 97.1065 30.1975C96.9665 30.6525 96.8965 31.135 96.8965 31.645C96.8965 32.155 96.964 32.6375 97.099 33.0925C97.234 33.5475 97.439 33.9525 97.714 34.3075C97.989 34.6625 98.334 34.94 98.749 35.14C99.164 35.34 99.6515 35.44 100.212 35.44ZM107.116 35.3125C107.046 35.8725 106.974 36.435 106.899 37H108.871C108.966 36.185 109.059 35.41 109.149 34.675C109.239 33.935 109.324 33.2425 109.404 32.5975L109.734 29.8525H109.876L111.031 32.83C111.216 33.295 111.404 33.7725 111.594 34.2625C111.784 34.7475 111.969 35.225 112.149 35.695C112.334 36.16 112.501 36.595 112.651 37H114.054C114.279 36.37 114.521 35.6975 114.781 34.9825C115.046 34.2675 115.309 33.5475 115.569 32.8225L116.641 29.8525H116.784L117.121 32.6125C117.201 33.2525 117.286 33.94 117.376 34.675L117.661 37H119.656C119.586 36.425 119.516 35.8625 119.446 35.3125C119.376 34.7575 119.299 34.155 119.214 33.505L118.764 29.92C118.684 29.26 118.606 28.645 118.531 28.075C118.461 27.5 118.389 26.91 118.314 26.305H116.214C115.959 26.985 115.714 27.625 115.479 28.225C115.249 28.82 115.014 29.42 114.774 30.025L113.394 33.58H113.251L111.834 30.0175C111.594 29.4175 111.354 28.815 111.114 28.21C110.874 27.6 110.621 26.965 110.356 26.305H108.234C108.159 26.915 108.086 27.5075 108.016 28.0825C107.946 28.6525 107.869 29.2625 107.784 29.9125L107.341 33.4825C107.261 34.1375 107.186 34.7475 107.116 35.3125Z" fill="white"/>
<path d="M35.6463 8.32471H4.35374C1.94924 8.32471 0 10.2739 0 12.6784V33.0866C0 35.4911 1.94924 37.4404 4.35374 37.4404H35.6463C38.0508 37.4404 40 35.4911 40 33.0866V12.6784C40 10.2739 38.0508 8.32471 35.6463 8.32471Z" fill="#EA003D"/>
<path d="M7.25586 11.5903H28.8727C30.8457 11.5903 32.4904 13.0934 32.6289 15.0465C33.0311 20.7226 33.0191 25.0309 32.622 30.7068C32.4848 32.6657 30.8375 34.1754 28.8603 34.1754H7.24567C5.23654 34.1754 3.57419 32.6178 3.47312 30.6227C3.19269 25.0875 3.19754 20.8067 3.4794 15.1531C3.57912 13.1532 5.24332 11.5903 7.25586 11.5903Z" stroke="white" stroke-width="2"/>
<path d="M10.3401 37.4404H7.61899C7.24329 37.4404 6.93872 37.745 6.93872 38.1207C6.93872 38.4964 7.24329 38.801 7.61899 38.801H10.3401C10.7158 38.801 11.0204 38.4964 11.0204 38.1207C11.0204 37.745 10.7158 37.4404 10.3401 37.4404Z" fill="#EA003D"/>
<path d="M32.1089 37.4404H29.3878C29.0121 37.4404 28.7075 37.745 28.7075 38.1207C28.7075 38.4964 29.0121 38.801 29.3878 38.801H32.1089C32.4846 38.801 32.7891 38.4964 32.7891 38.1207C32.7891 37.745 32.4846 37.4404 32.1089 37.4404Z" fill="#EA003D"/>
<path d="M36.7347 17.1684C37.4861 17.1684 38.0952 16.5592 38.0952 15.8078C38.0952 15.0564 37.4861 14.4473 36.7347 14.4473C35.9833 14.4473 35.3741 15.0564 35.3741 15.8078C35.3741 16.5592 35.9833 17.1684 36.7347 17.1684Z" fill="white"/>
<path d="M36.7347 22.8827C37.4861 22.8827 38.0952 22.2736 38.0952 21.5222C38.0952 20.7708 37.4861 20.1616 36.7347 20.1616C35.9833 20.1616 35.3741 20.7708 35.3741 21.5222C35.3741 22.2736 35.9833 22.8827 36.7347 22.8827Z" fill="white"/>
<path d="M25.3061 4.51531C26.2078 4.51531 26.9388 3.78434 26.9388 2.88265C26.9388 1.98096 26.2078 1.25 25.3061 1.25C24.4044 1.25 23.6735 1.98096 23.6735 2.88265C23.6735 3.78434 24.4044 4.51531 25.3061 4.51531Z" fill="#EA003D"/>
<path d="M23.8551 3.65575L20.9194 8.74055C20.694 9.13099 20.8277 9.63025 21.2182 9.85567C21.6086 10.0811 22.1079 9.94732 22.3333 9.55688L25.269 4.47208C25.4944 4.08164 25.3607 3.58238 24.9702 3.35696C24.5798 3.13153 24.0805 3.26531 23.8551 3.65575Z" fill="#EA003D"/>
<path d="M9.52377 4.51531C10.4255 4.51531 11.1564 3.78434 11.1564 2.88265C11.1564 1.98096 10.4255 1.25 9.52377 1.25C8.62208 1.25 7.89111 1.98096 7.89111 2.88265C7.89111 3.78434 8.62208 4.51531 9.52377 4.51531Z" fill="#EA003D"/>
<path d="M10.9751 3.03337L18.3904 8.22562C18.7597 8.48422 18.8495 8.99323 18.5909 9.36254C18.3323 9.73185 17.8232 9.82161 17.4539 9.56301L10.0386 4.37076C9.66932 4.11217 9.57956 3.60315 9.83816 3.23384C10.0968 2.86453 10.6058 2.77478 10.9751 3.03337Z" fill="#EA003D"/>
<path d="M21.1328 22.8267C20.8492 22.7866 20.5973 23.013 20.3758 23.1553C19.8975 23.4607 19.4751 23.815 19.0674 24.2142C18.8156 24.4613 18.4747 24.7899 18.3847 25.1452C18.3433 25.3095 18.3943 25.4982 18.4273 25.6588C18.4844 25.9387 18.572 26.2114 18.6598 26.4828C18.7587 26.7878 18.8732 27.0876 19.0029 27.381C19.0674 27.5282 19.138 27.6742 19.2074 27.8203C19.2719 27.9567 19.3145 28.0369 19.4727 28.0576C19.6504 28.0807 19.8281 28.0539 20.0045 28.0467C20.2651 28.0369 20.5255 28.0114 20.7822 27.9676C21.1218 27.9104 21.4639 27.8484 21.7888 27.7327C22.0894 27.6244 22.4338 27.4564 22.6078 27.1802C22.9815 26.5862 23.2078 25.9119 23.332 25.2243C23.3685 25.0259 23.4039 24.8239 23.4026 24.6206C23.4039 24.4417 23.4196 24.258 23.2907 24.1205C23.0594 23.8722 22.7855 23.6665 22.5019 23.4803C22.0821 23.2077 21.6428 22.8998 21.1328 22.8267ZM12.875 19.9569C12.6109 20.0968 12.404 20.4303 12.2495 20.6749C11.9403 21.1618 11.6908 21.724 11.574 22.29C11.4851 22.7233 11.6787 23.1456 11.8235 23.5461C11.9647 23.9318 12.2105 24.2373 12.4795 24.5403C12.5476 24.6182 12.634 24.6767 12.7022 24.7533C12.7801 24.8398 12.8787 24.9213 12.9809 24.9784C13.0539 25.0198 13.1196 24.9639 13.1939 24.9469C13.3898 24.8994 13.5359 24.7995 13.7135 24.7059C13.873 24.6206 14.0373 24.5489 14.198 24.4636C14.5424 24.2787 14.9526 24.1266 15.2531 23.8722C15.2922 23.8393 15.3432 23.7979 15.3542 23.7456C15.3822 23.6153 15.3432 23.4462 15.3372 23.3135C15.3298 23.1273 15.3274 22.9424 15.3262 22.7561C15.3249 22.335 15.3407 21.9139 15.3407 21.4929C15.3444 21.2579 15.3736 21.0243 15.3626 20.7893C15.3432 20.4401 14.9659 20.316 14.6824 20.2454C14.2844 20.1467 13.884 20.0116 13.4775 19.9617C13.3095 19.9435 13.032 19.8741 12.875 19.9569ZM23.2067 18.9066C23.2444 18.6425 23.0679 18.3248 22.94 18.0886C22.687 17.6178 22.3243 17.1552 21.8715 16.7877C21.5259 16.5065 21.0172 16.3922 20.5437 16.3447C19.6954 16.2583 19.0479 16.3105 18.869 16.3386C18.6889 16.3666 18.5198 16.4213 18.4236 16.5406C18.2338 16.7719 18.2009 17.1029 18.1607 17.3877C18.1024 17.7942 18.0512 18.2129 18.1047 18.6218C18.1132 18.6948 18.1243 18.791 18.1595 18.8554C18.2264 18.9748 18.3677 19.0344 18.5075 19.0964C19.233 19.4165 20.6168 20.2088 20.8419 20.316C21.1779 20.4778 21.5356 20.2624 21.7839 20.0884C22.1283 19.8462 22.5117 19.6186 22.816 19.3447C22.9413 19.2327 23.1836 19.0624 23.2067 18.9066ZM12.7874 27.9603C12.8166 28.0054 12.8446 28.0394 12.8896 28.0734C12.9614 28.1282 13.0296 28.1842 13.0977 28.2439C13.6928 28.7659 14.3902 29.1591 15.0815 29.5364C15.2897 29.6508 15.4881 29.7676 15.6998 29.8735C15.9286 29.9867 16.1648 30.0633 16.4105 30.1315C16.5773 30.1778 16.7464 30.2228 16.9194 30.2398C17.0799 30.2557 17.2443 30.2934 17.4062 30.2958C17.4987 30.2971 17.5839 30.2934 17.6739 30.2812C17.6301 30.2107 17.5911 30.1206 17.5534 30.0451C17.4938 29.927 17.433 29.8078 17.372 29.691C17.3014 29.5558 17.2467 29.4146 17.1749 29.2807C17.119 29.1786 17.0459 29.0727 16.9448 29.013C16.8098 28.9327 16.6807 28.8535 16.5335 28.7939C15.9956 28.5749 15.5136 28.2658 15.0134 27.9761C14.7603 27.8288 14.512 27.6718 14.2734 27.5002C14.1456 27.4089 14.0215 27.3141 13.8864 27.2324C13.8584 27.2142 13.8304 27.1923 13.7976 27.1874C13.7683 27.1825 13.7233 27.1837 13.6941 27.1874C13.6674 27.1911 13.6357 27.196 13.6101 27.2009C13.4349 27.2373 13.245 27.2836 13.0637 27.3237C12.8908 27.3627 12.6973 27.3761 12.5318 27.4394C12.4673 27.4637 12.4746 27.5002 12.5002 27.5563C12.5391 27.6439 12.5963 27.7241 12.6559 27.7972C12.6961 27.8496 12.746 27.8982 12.7874 27.9603Z" fill="white"/>
<path d="M14.893 21.0083C14.8518 21.0084 14.8114 20.9967 14.7764 20.9748C14.7416 20.9528 14.7137 20.9215 14.6959 20.8844C14.6781 20.8472 14.6711 20.8057 14.6758 20.7648C14.6805 20.7238 14.6967 20.685 14.7226 20.6529C14.7823 20.58 16.1868 18.8591 18.6988 18.4695C18.7271 18.4653 18.7559 18.4665 18.7837 18.4733C18.8114 18.4803 18.8377 18.4925 18.8607 18.5094C18.8838 18.5264 18.9032 18.5478 18.9181 18.5722C18.9329 18.5966 18.9427 18.6238 18.9471 18.6521C18.9513 18.6804 18.9501 18.7093 18.9432 18.737C18.9363 18.7649 18.9241 18.791 18.9072 18.814C18.8902 18.8371 18.8688 18.8566 18.8443 18.8714C18.8198 18.8863 18.7928 18.8961 18.7645 18.9004C16.4265 19.2644 15.0755 20.911 15.0622 20.9268C15.0184 20.9804 14.9563 21.0083 14.893 21.0083ZM14.3745 28.649C14.3113 28.649 14.248 28.6223 14.2053 28.5687C14.1457 28.4956 12.7619 26.7577 12.9116 24.2214C12.9189 24.101 13.0212 24.0084 13.1416 24.0156C13.2621 24.023 13.3534 24.1264 13.3461 24.2469C13.2074 26.6166 14.5303 28.2778 14.5437 28.2936C14.6204 28.3873 14.6046 28.5249 14.5121 28.6004C14.4718 28.632 14.4232 28.649 14.3745 28.649ZM16.02 29.5059C15.908 29.5059 15.813 29.4207 15.8034 29.3063C15.7936 29.1857 15.8824 29.0799 16.003 29.0702C16.0237 29.069 18.1438 28.8694 19.7528 27.1337C19.7924 27.0914 19.8471 27.0665 19.905 27.0645C19.963 27.0624 20.0193 27.0834 20.0619 27.1229C20.1507 27.2044 20.1555 27.3431 20.0728 27.432C18.3446 29.2942 16.132 29.4973 16.0394 29.5059C16.0321 29.5046 16.0261 29.5059 16.02 29.5059ZM12.9883 20.7467C12.8861 20.7467 12.7948 20.6748 12.7753 20.5702C12.7631 20.5094 12.4881 19.0671 13.0808 17.3584C13.1209 17.2439 13.2439 17.1831 13.3583 17.2233C13.4715 17.2634 13.5323 17.3864 13.4934 17.5008C12.9384 19.1 13.2001 20.4716 13.2037 20.4863C13.2268 20.6042 13.1502 20.7199 13.0309 20.743C13.0175 20.7454 13.0029 20.7467 12.9883 20.7467ZM19.3303 17.1674C19.2854 17.1674 19.2392 17.1527 19.2013 17.1235C19.1905 17.1162 18.0549 16.2922 16.379 16.1084C16.2597 16.0963 16.1721 15.988 16.1856 15.8687C16.1977 15.7482 16.306 15.663 16.4253 15.6752C18.2241 15.8712 19.4095 16.7352 19.4594 16.7717C19.5555 16.8435 19.5762 16.9799 19.5045 17.0773C19.4631 17.1369 19.3973 17.1674 19.3303 17.1674ZM24.8388 20.7174C24.7755 20.7174 24.7122 20.6895 24.6684 20.6359C23.6047 19.3203 22.3024 18.8152 22.2903 18.8103C22.2362 18.7899 22.1924 18.7488 22.1684 18.6962C22.1445 18.6434 22.1423 18.5834 22.1624 18.5293C22.205 18.4161 22.3317 18.36 22.4437 18.4014C22.502 18.4233 23.8701 18.9539 25.0068 20.3608C25.0834 20.4546 25.0676 20.5921 24.9739 20.6676C24.9349 20.7016 24.8862 20.7174 24.8388 20.7174ZM20.9868 23.6676C20.9784 23.6676 20.9673 23.6664 20.9588 23.6652C20.9305 23.6615 20.903 23.6522 20.8782 23.638C20.8533 23.6237 20.8315 23.6046 20.8141 23.5819C20.7967 23.5592 20.7841 23.5332 20.7767 23.5054C20.7694 23.4778 20.7675 23.449 20.7714 23.4205C21.0501 21.3346 20.7763 19.7937 20.7726 19.778C20.7507 19.6599 20.8286 19.5454 20.9479 19.5248C21.0672 19.5016 21.1803 19.5819 21.2022 19.7C21.2132 19.7657 21.4918 21.3248 21.2034 23.4789C21.1888 23.5886 21.0951 23.6676 20.9868 23.6676ZM19.093 25.4494C19.0857 25.4494 19.0809 25.4494 19.0736 25.4482C16.362 25.2084 14.5778 23.6785 14.5023 23.614C14.4588 23.5761 14.432 23.5223 14.4279 23.4646C14.4238 23.4069 14.4427 23.3499 14.4804 23.3061C14.5596 23.2148 14.697 23.2052 14.7883 23.2842C14.8065 23.2989 16.5469 24.7873 19.1125 25.0137C19.1683 25.0189 19.22 25.0454 19.2567 25.0878C19.2935 25.1301 19.3126 25.1848 19.3101 25.2408C19.3076 25.2967 19.2837 25.3497 19.2432 25.3884C19.2028 25.4273 19.1491 25.4491 19.093 25.4494ZM11.3051 22.9483C11.1213 22.9483 10.9205 22.9252 10.7331 22.8535C10.6789 22.8329 10.6351 22.7918 10.6112 22.7392C10.5872 22.6865 10.5851 22.6265 10.6053 22.5722C10.6491 22.4603 10.7732 22.4031 10.8876 22.4445C11.2893 22.5978 11.826 22.4408 11.8321 22.4396C11.9465 22.4056 12.0682 22.4701 12.1023 22.5868C12.1376 22.7012 12.0718 22.823 11.9574 22.8582C11.9392 22.8631 11.652 22.9483 11.3051 22.9483ZM23.2007 24.8105C23.1179 24.8105 23.04 24.763 23.0035 24.6838C22.9524 24.5755 23.0011 24.4453 23.1094 24.3942C23.1215 24.3882 24.3896 23.7882 25.3548 22.4056C25.423 22.3057 25.5593 22.2814 25.6579 22.3508C25.7564 22.4201 25.7808 22.5552 25.7126 22.6537C24.6782 24.1374 23.3491 24.763 23.2932 24.7898C23.2615 24.8031 23.231 24.8105 23.2007 24.8105ZM23.2007 28.4944C23.152 28.4944 23.1032 28.4786 23.0619 28.4471C22.5628 28.0539 22.0797 27.3395 22.059 27.3103C21.9909 27.208 22.0177 27.0693 22.1198 26.9999C22.2209 26.9318 22.3608 26.9585 22.429 27.062C22.4339 27.068 22.894 27.7472 23.3382 28.0965C23.4343 28.1732 23.4514 28.3132 23.3759 28.4105C23.3309 28.4641 23.2664 28.4944 23.2007 28.4944Z" fill="white"/>
<path d="M18.1291 30.6718C13.8523 30.6718 10.374 27.1935 10.374 22.9167C10.374 18.6411 13.8523 15.1616 18.1291 15.1616C22.4058 15.1616 25.8842 18.6411 25.8842 22.9155C25.8842 27.1935 22.4047 30.6718 18.1291 30.6718ZM18.1291 16.0341C14.3344 16.0341 11.2466 19.1219 11.2466 22.9167C11.2466 26.7114 14.3332 29.7992 18.1278 29.7992C21.9227 29.7992 25.0104 26.7114 25.0104 22.9167C25.0117 19.1219 21.9227 16.0341 18.1291 16.0341Z" fill="white"/>
</svg>
