<svg width="120" height="40" viewBox="0 0 120 40" fill="none" xmlns="http://www.w3.org/2000/svg">
<path fill-rule="evenodd" clip-rule="evenodd" d="M51.0975 18.0675C51.5625 18.1475 52.0176 18.1875 52.4626 18.1875C53.3876 18.1875 54.1426 18.0525 54.7276 17.7825C55.3125 17.5125 55.7425 17.1375 56.0176 16.6575C56.2976 16.1775 56.4375 15.6225 56.4375 14.9925C56.4375 14.4125 56.3326 13.93 56.1226 13.545C55.9175 13.16 55.5676 12.83 55.0725 12.555C54.5775 12.275 53.9025 12.005 53.0476 11.745C52.5476 11.59 52.1376 11.44 51.8176 11.295C51.4976 11.15 51.2626 10.985 51.1125 10.8C50.9626 10.615 50.8876 10.385 50.8876 10.11C50.8876 9.82497 50.9701 9.58997 51.135 9.40497C51.305 9.21497 51.5275 9.07497 51.8026 8.98497C52.0826 8.88997 52.39 8.84247 52.7251 8.84247C53.0051 8.84247 53.3101 8.87747 53.64 8.94747C53.9751 9.01747 54.3125 9.12247 54.6525 9.26247C54.9976 9.40247 55.3251 9.57247 55.635 9.77247L55.8075 7.86747C55.6175 7.76747 55.3926 7.67247 55.1325 7.58247C54.8775 7.48747 54.5975 7.40497 54.2925 7.33497C53.9875 7.25997 53.6701 7.20247 53.34 7.16247C53.01 7.11747 52.6825 7.09497 52.3576 7.09497C51.5375 7.09497 50.855 7.22747 50.3101 7.49247C49.765 7.75247 49.355 8.11747 49.0801 8.58747C48.8101 9.05247 48.675 9.58497 48.675 10.185C48.675 10.8 48.7976 11.3025 49.0425 11.6925C49.2925 12.0825 49.6501 12.405 50.1151 12.66C50.585 12.91 51.1501 13.135 51.8101 13.335C52.315 13.485 52.7476 13.6375 53.1076 13.7925C53.4725 13.9425 53.75 14.12 53.94 14.325C54.1351 14.53 54.2326 14.79 54.2326 15.105C54.2326 15.415 54.1501 15.67 53.9851 15.87C53.8251 16.07 53.6 16.2175 53.3101 16.3125C53.0201 16.4075 52.6875 16.455 52.3125 16.455C51.9525 16.455 51.5826 16.4175 51.2025 16.3425C50.8275 16.2675 50.4525 16.16 50.0775 16.02C49.7076 15.88 49.35 15.7125 49.0051 15.5175L48.8475 17.4225C49.0925 17.5425 49.4125 17.6625 49.8075 17.7825C50.2076 17.8975 50.6376 17.9925 51.0975 18.0675ZM58.0981 16.3125V18H60.1681V16.3125V14.4975V14.0775H60.5806H61.4056H62.1931C63.1381 14.0775 63.8906 13.93 64.4506 13.635C65.0106 13.335 65.4156 12.9225 65.6656 12.3975C65.9156 11.8675 66.0406 11.26 66.0406 10.575C66.0406 9.77997 65.8981 9.14497 65.6131 8.66997C65.3281 8.18997 64.9031 7.84247 64.3381 7.62747C63.7731 7.41247 63.0656 7.30497 62.2156 7.30497H59.7856H58.0981V9.02247V10.875V14.4975V16.3125ZM60.1681 12.42H61.7356C62.2356 12.42 62.6456 12.3575 62.9656 12.2325C63.2856 12.1075 63.5206 11.9125 63.6706 11.6475C63.8256 11.3775 63.9031 11.0275 63.9031 10.5975C63.9031 10.2475 63.8481 9.96747 63.7381 9.75747C63.6281 9.54247 63.4831 9.37997 63.3031 9.26997C63.1231 9.15997 62.9256 9.08497 62.7106 9.04497C62.4956 9.00497 62.2831 8.98497 62.0731 8.98497H60.1681V9.35247V11.205V12.42ZM70.2571 17.745C70.9571 18.04 71.7796 18.1875 72.7246 18.1875C73.8846 18.1875 74.8696 17.9475 75.6796 17.4675C76.4896 16.9825 77.1046 16.3225 77.5246 15.4875C77.9446 14.6525 78.1546 13.705 78.1546 12.645C78.1546 11.875 78.0396 11.155 77.8096 10.485C77.5796 9.81497 77.2346 9.22497 76.7746 8.71497C76.3146 8.20497 75.7421 7.80747 75.0571 7.52247C74.3721 7.23747 73.5746 7.09497 72.6646 7.09497C71.4696 7.09497 70.4646 7.34247 69.6496 7.83747C68.8396 8.32747 68.2271 8.99497 67.8121 9.83997C67.3971 10.68 67.1896 11.6175 67.1896 12.6525C67.1896 13.3925 67.2996 14.095 67.5196 14.76C67.7446 15.425 68.0821 16.015 68.5321 16.53C68.9871 17.045 69.5621 17.45 70.2571 17.745ZM74.1421 16.14C73.7321 16.34 73.2471 16.44 72.6871 16.44C72.1271 16.44 71.6396 16.34 71.2246 16.14C70.8096 15.94 70.4646 15.6625 70.1896 15.3075C69.9146 14.9525 69.7096 14.5475 69.5746 14.0925C69.4396 13.6375 69.3721 13.155 69.3721 12.645C69.3721 12.135 69.4421 11.6525 69.5821 11.1975C69.7221 10.7375 69.9296 10.33 70.2046 9.97497C70.4846 9.61997 70.8321 9.34247 71.2471 9.14247C71.6621 8.94247 72.1421 8.84247 72.6871 8.84247C73.2171 8.84247 73.6846 8.93997 74.0896 9.13497C74.4996 9.32497 74.8421 9.59497 75.1171 9.94497C75.3971 10.29 75.6096 10.6925 75.7546 11.1525C75.8996 11.6125 75.9721 12.11 75.9721 12.645C75.9721 13.145 75.9046 13.6225 75.7696 14.0775C75.6396 14.5325 75.4371 14.94 75.1621 15.3C74.8921 15.655 74.5521 15.935 74.1421 16.14ZM79.9536 16.3125V18H82.0086V16.3125V14.4975V14.0025H83.5759L84.6711 15.6C84.9311 15.975 85.1961 16.3625 85.4661 16.7625C85.7411 17.1575 86.0261 17.57 86.3211 18H88.7211C88.5261 17.725 88.2986 17.41 88.0386 17.055C87.7836 16.7 87.5211 16.335 87.2511 15.96C86.9861 15.585 86.7336 15.2325 86.4936 14.9025L85.4635 13.4705C85.7783 13.3975 86.0567 13.2948 86.2986 13.1625C86.8336 12.8675 87.2186 12.4725 87.4536 11.9775C87.6936 11.4825 87.8136 10.9325 87.8136 10.3275C87.8136 9.57747 87.6636 8.98247 87.3636 8.54247C87.0686 8.10247 86.6286 7.78747 86.0436 7.59747C85.4586 7.40247 84.7411 7.30497 83.8911 7.30497H82.3986H81.0486H79.9536V9.02247V10.875V14.4975V16.3125ZM82.0086 12.375H83.5086C83.9786 12.375 84.3711 12.32 84.6861 12.21C85.0061 12.095 85.2461 11.9075 85.4061 11.6475C85.5661 11.3825 85.6461 11.025 85.6461 10.575C85.6461 10.225 85.5911 9.94497 85.4811 9.73497C85.3761 9.52497 85.2336 9.36497 85.0536 9.25497C84.8736 9.14497 84.6761 9.07247 84.4611 9.03747C84.2511 9.00247 84.0386 8.98497 83.8236 8.98497H82.0086V9.38997V11.205V12.375ZM92.5541 16.3125V18H94.6466V16.3125V14.4975V11.205V9.34497V9.14247H95.2091H96.7467H98.0141V7.30497H89.1791V9.14247H90.4467H91.9841H92.5541V9.34497V11.205V14.4975V16.3125ZM49.1625 32.3125V34H56.16V32.2525H54.5775H52.8301H51.2175V31.9825V30.1675V29.425H52.7326H54.4276H55.8526V27.7675H54.465H52.7401H51.2175V27.205V25.3525V25.0525H52.6726H54.585H56.1076V23.305H49.1625V25.0225V26.875V30.4975V32.3125ZM58.0981 32.3125V34H60.1606V32.3125V30.4975V29.5675H61.5556H63.2431H64.6756V27.8725H63.2806H61.5631H60.1606V27.205V25.345V25.0675H61.5031H63.4156H64.9381V23.305H58.0981V25.0225V26.8825V30.4975V32.3125ZM66.7782 32.3125V34H68.9232V32.3125V30.4975V26.8825V25.0225V23.305H66.7782V25.0225V26.8825V30.4975V32.3125ZM71.2817 32.3125V34H73.3367V32.3125V30.4975V30.0025H74.904L75.9992 31.6C76.2592 31.975 76.5242 32.3625 76.7942 32.7625C77.0692 33.1575 77.3542 33.57 77.6492 34H80.0492C79.8542 33.725 79.6267 33.41 79.3667 33.055C79.1117 32.7 78.8492 32.335 78.5792 31.96C78.3142 31.585 78.0617 31.2325 77.8217 30.9025L76.7917 29.4705C77.1065 29.3975 77.3848 29.2948 77.6267 29.1625C78.1617 28.8675 78.5467 28.4725 78.7817 27.9775C79.0217 27.4825 79.1417 26.9325 79.1417 26.3275C79.1417 25.5775 78.9917 24.9825 78.6917 24.5425C78.3967 24.1025 77.9567 23.7875 77.3717 23.5975C76.7867 23.4025 76.0692 23.305 75.2192 23.305H73.7267H72.3767H71.2817V25.0225V26.875V30.4975V32.3125ZM73.3367 28.375H74.8367C75.3067 28.375 75.6992 28.32 76.0142 28.21C76.3342 28.095 76.5742 27.9075 76.7342 27.6475C76.8942 27.3825 76.9742 27.025 76.9742 26.575C76.9742 26.225 76.9192 25.945 76.8092 25.735C76.7042 25.525 76.5617 25.365 76.3817 25.255C76.2017 25.145 76.0042 25.0725 75.7892 25.0375C75.5792 25.0025 75.3667 24.985 75.1517 24.985H73.3367V25.39V27.205V28.375ZM81.6252 34.0225C81.8152 34.1325 82.0377 34.1875 82.2927 34.1875C82.6927 34.1875 83.0027 34.07 83.2227 33.835C83.4477 33.6 83.5602 33.305 83.5602 32.95C83.5602 32.715 83.5102 32.5075 83.4102 32.3275C83.3102 32.1425 83.1652 32 82.9752 31.9C82.7902 31.795 82.5652 31.7425 82.3002 31.7425C81.9152 31.7425 81.6077 31.855 81.3777 32.08C81.1527 32.305 81.0402 32.595 81.0402 32.95C81.0402 33.185 81.0902 33.3975 81.1902 33.5875C81.2902 33.7725 81.4352 33.9175 81.6252 34.0225ZM87.7226 33.79C88.4126 34.055 89.1876 34.1875 90.0476 34.1875C90.3426 34.1875 90.6401 34.1725 90.9401 34.1425C91.2401 34.1175 91.5301 34.075 91.8101 34.015C92.0951 33.955 92.3676 33.88 92.6276 33.79C92.8876 33.695 93.1226 33.585 93.3326 33.46L93.2051 31.5175C92.9701 31.6875 92.7326 31.8325 92.4926 31.9525C92.2526 32.0725 92.0101 32.1675 91.7651 32.2375C91.5201 32.3075 91.2751 32.36 91.0301 32.395C90.7851 32.425 90.5426 32.44 90.3026 32.44C89.6926 32.44 89.1576 32.3425 88.6976 32.1475C88.2426 31.9475 87.8626 31.6725 87.5576 31.3225C87.2526 30.9725 87.0226 30.57 86.8676 30.115C86.7176 29.655 86.6426 29.1675 86.6426 28.6525C86.6426 27.8575 86.7901 27.18 87.0851 26.62C87.3801 26.06 87.7851 25.6325 88.3001 25.3375C88.8201 25.0425 89.4101 24.895 90.0701 24.895C90.3851 24.895 90.7101 24.9275 91.0451 24.9925C91.3851 25.0575 91.7376 25.165 92.1026 25.315C92.4676 25.46 92.8426 25.6525 93.2276 25.8925L93.3926 23.9275C93.1926 23.8175 92.9601 23.715 92.6951 23.62C92.4351 23.52 92.1501 23.43 91.8401 23.35C91.5351 23.27 91.2126 23.2075 90.8726 23.1625C90.5376 23.1175 90.1976 23.095 89.8526 23.095C88.7426 23.095 87.7851 23.335 86.9801 23.815C86.1751 24.29 85.5526 24.9475 85.1126 25.7875C84.6776 26.6225 84.4601 27.5775 84.4601 28.6525C84.4601 29.4675 84.5876 30.215 84.8426 30.895C85.1026 31.57 85.4751 32.155 85.9601 32.65C86.4451 33.14 87.0326 33.52 87.7226 33.79ZM97.7815 33.745C98.4815 34.04 99.304 34.1875 100.249 34.1875C101.409 34.1875 102.394 33.9475 103.204 33.4675C104.014 32.9825 104.629 32.3225 105.049 31.4875C105.469 30.6525 105.679 29.705 105.679 28.645C105.679 27.875 105.564 27.155 105.334 26.485C105.104 25.815 104.759 25.225 104.299 24.715C103.839 24.205 103.267 23.8075 102.582 23.5225C101.897 23.2375 101.099 23.095 100.189 23.095C98.994 23.095 97.989 23.3425 97.174 23.8375C96.364 24.3275 95.7515 24.995 95.3365 25.84C94.9215 26.68 94.714 27.6175 94.714 28.6525C94.714 29.3925 94.824 30.095 95.044 30.76C95.269 31.425 95.6065 32.015 96.0565 32.53C96.5115 33.045 97.0865 33.45 97.7815 33.745ZM101.667 32.14C101.257 32.34 100.772 32.44 100.212 32.44C99.6515 32.44 99.164 32.34 98.749 32.14C98.334 31.94 97.989 31.6625 97.714 31.3075C97.439 30.9525 97.234 30.5475 97.099 30.0925C96.964 29.6375 96.8965 29.155 96.8965 28.645C96.8965 28.135 96.9665 27.6525 97.1065 27.1975C97.2465 26.7375 97.454 26.33 97.729 25.975C98.009 25.62 98.3565 25.3425 98.7715 25.1425C99.1865 24.9425 99.6665 24.8425 100.212 24.8425C100.742 24.8425 101.209 24.94 101.614 25.135C102.024 25.325 102.367 25.595 102.642 25.945C102.922 26.29 103.134 26.6925 103.279 27.1525C103.424 27.6125 103.497 28.11 103.497 28.645C103.497 29.145 103.429 29.6225 103.294 30.0775C103.164 30.5325 102.962 30.94 102.687 31.3C102.417 31.655 102.077 31.935 101.667 32.14ZM107.116 32.3125C107.046 32.8725 106.974 33.435 106.899 34H108.871C108.966 33.185 109.059 32.41 109.149 31.675C109.239 30.935 109.324 30.2425 109.404 29.5975L109.734 26.8525H109.876L111.031 29.83C111.216 30.295 111.404 30.7725 111.594 31.2625C111.784 31.7475 111.969 32.225 112.149 32.695C112.334 33.16 112.501 33.595 112.651 34H114.054C114.279 33.37 114.521 32.6975 114.781 31.9825C115.046 31.2675 115.309 30.5475 115.569 29.8225L116.641 26.8525H116.784L117.121 29.6125C117.201 30.2525 117.286 30.94 117.376 31.675L117.661 34H119.656C119.586 33.425 119.516 32.8625 119.446 32.3125C119.376 31.7575 119.299 31.155 119.214 30.505L118.764 26.92C118.684 26.26 118.606 25.645 118.531 25.075C118.461 24.5 118.389 23.91 118.314 23.305H116.214C115.959 23.985 115.714 24.625 115.479 25.225C115.249 25.82 115.014 26.42 114.774 27.025L113.394 30.58H113.251L111.834 27.0175C111.594 26.4175 111.354 25.815 111.114 25.21C110.874 24.6 110.621 23.965 110.356 23.305H108.234C108.159 23.915 108.086 24.5075 108.016 25.0825C107.946 25.6525 107.869 26.2625 107.784 26.9125L107.341 30.4825C107.261 31.1375 107.186 31.7475 107.116 32.3125Z" fill="white"/>
<path d="M35.6463 8.32471H4.35374C1.94924 8.32471 0 10.2739 0 12.6784V33.0866C0 35.4911 1.94924 37.4404 4.35374 37.4404H35.6463C38.0508 37.4404 40 35.4911 40 33.0866V12.6784C40 10.2739 38.0508 8.32471 35.6463 8.32471Z" fill="#EA003D"/>
<path d="M7.25586 11.5903H28.8727C30.8457 11.5903 32.4904 13.0934 32.6289 15.0465C33.0311 20.7226 33.0191 25.0309 32.622 30.7068C32.4848 32.6657 30.8375 34.1754 28.8603 34.1754H7.24567C5.23654 34.1754 3.57419 32.6178 3.47312 30.6227C3.19269 25.0875 3.19754 20.8067 3.4794 15.1531C3.57912 13.1532 5.24332 11.5903 7.25586 11.5903Z" stroke="white" stroke-width="2"/>
<path d="M10.3401 37.4404H7.61899C7.24329 37.4404 6.93872 37.745 6.93872 38.1207C6.93872 38.4964 7.24329 38.801 7.61899 38.801H10.3401C10.7158 38.801 11.0204 38.4964 11.0204 38.1207C11.0204 37.745 10.7158 37.4404 10.3401 37.4404Z" fill="#EA003D"/>
<path d="M32.1089 37.4404H29.3878C29.0121 37.4404 28.7075 37.745 28.7075 38.1207C28.7075 38.4964 29.0121 38.801 29.3878 38.801H32.1089C32.4846 38.801 32.7891 38.4964 32.7891 38.1207C32.7891 37.745 32.4846 37.4404 32.1089 37.4404Z" fill="#EA003D"/>
<path d="M36.7347 17.1684C37.4861 17.1684 38.0952 16.5592 38.0952 15.8078C38.0952 15.0564 37.4861 14.4473 36.7347 14.4473C35.9833 14.4473 35.3741 15.0564 35.3741 15.8078C35.3741 16.5592 35.9833 17.1684 36.7347 17.1684Z" fill="white"/>
<path d="M36.7347 22.8827C37.4861 22.8827 38.0952 22.2736 38.0952 21.5222C38.0952 20.7708 37.4861 20.1616 36.7347 20.1616C35.9833 20.1616 35.3741 20.7708 35.3741 21.5222C35.3741 22.2736 35.9833 22.8827 36.7347 22.8827Z" fill="white"/>
<path d="M25.3061 4.51531C26.2078 4.51531 26.9388 3.78434 26.9388 2.88265C26.9388 1.98096 26.2078 1.25 25.3061 1.25C24.4044 1.25 23.6735 1.98096 23.6735 2.88265C23.6735 3.78434 24.4044 4.51531 25.3061 4.51531Z" fill="#EA003D"/>
<path d="M23.8551 3.65575L20.9194 8.74055C20.694 9.13099 20.8277 9.63025 21.2182 9.85567C21.6086 10.0811 22.1079 9.94732 22.3333 9.55688L25.269 4.47208C25.4944 4.08164 25.3607 3.58238 24.9702 3.35696C24.5798 3.13153 24.0805 3.26531 23.8551 3.65575Z" fill="#EA003D"/>
<path d="M9.52377 4.51531C10.4255 4.51531 11.1564 3.78434 11.1564 2.88265C11.1564 1.98096 10.4255 1.25 9.52377 1.25C8.62208 1.25 7.89111 1.98096 7.89111 2.88265C7.89111 3.78434 8.62208 4.51531 9.52377 4.51531Z" fill="#EA003D"/>
<path d="M10.9751 3.03337L18.3904 8.22562C18.7597 8.48422 18.8495 8.99323 18.5909 9.36254C18.3323 9.73185 17.8232 9.82161 17.4539 9.56301L10.0386 4.37076C9.66932 4.11217 9.57956 3.60315 9.83816 3.23384C10.0968 2.86453 10.6058 2.77478 10.9751 3.03337Z" fill="#EA003D"/>
<path d="M21.1328 22.8267C20.8492 22.7866 20.5973 23.013 20.3758 23.1553C19.8975 23.4607 19.4751 23.815 19.0674 24.2142C18.8156 24.4613 18.4747 24.7899 18.3847 25.1452C18.3433 25.3095 18.3943 25.4982 18.4273 25.6588C18.4844 25.9387 18.572 26.2114 18.6598 26.4828C18.7587 26.7878 18.8732 27.0876 19.0029 27.381C19.0674 27.5282 19.138 27.6742 19.2074 27.8203C19.2719 27.9567 19.3145 28.0369 19.4727 28.0576C19.6504 28.0807 19.8281 28.0539 20.0045 28.0467C20.2651 28.0369 20.5255 28.0114 20.7822 27.9676C21.1218 27.9104 21.4639 27.8484 21.7888 27.7327C22.0894 27.6244 22.4338 27.4564 22.6078 27.1802C22.9815 26.5862 23.2078 25.9119 23.332 25.2243C23.3685 25.0259 23.4039 24.8239 23.4026 24.6206C23.4039 24.4417 23.4196 24.258 23.2907 24.1205C23.0594 23.8722 22.7855 23.6665 22.5019 23.4803C22.0821 23.2077 21.6428 22.8998 21.1328 22.8267ZM12.875 19.9569C12.6109 20.0968 12.404 20.4303 12.2495 20.6749C11.9403 21.1618 11.6908 21.724 11.574 22.29C11.4851 22.7233 11.6787 23.1456 11.8235 23.5461C11.9647 23.9318 12.2105 24.2373 12.4795 24.5403C12.5476 24.6182 12.634 24.6767 12.7022 24.7533C12.7801 24.8398 12.8787 24.9213 12.9809 24.9784C13.0539 25.0198 13.1196 24.9639 13.1939 24.9469C13.3898 24.8994 13.5359 24.7995 13.7135 24.7059C13.873 24.6206 14.0373 24.5489 14.198 24.4636C14.5424 24.2787 14.9526 24.1266 15.2531 23.8722C15.2922 23.8393 15.3432 23.7979 15.3542 23.7456C15.3822 23.6153 15.3432 23.4462 15.3372 23.3135C15.3298 23.1273 15.3274 22.9424 15.3262 22.7561C15.3249 22.335 15.3407 21.9139 15.3407 21.4929C15.3444 21.2579 15.3736 21.0243 15.3626 20.7893C15.3432 20.4401 14.9659 20.316 14.6824 20.2454C14.2844 20.1467 13.884 20.0116 13.4775 19.9617C13.3095 19.9435 13.032 19.8741 12.875 19.9569ZM23.2067 18.9066C23.2444 18.6425 23.0679 18.3248 22.94 18.0886C22.687 17.6178 22.3243 17.1552 21.8715 16.7877C21.5259 16.5065 21.0172 16.3922 20.5437 16.3447C19.6954 16.2583 19.0479 16.3105 18.869 16.3386C18.6889 16.3666 18.5198 16.4213 18.4236 16.5406C18.2338 16.7719 18.2009 17.1029 18.1607 17.3877C18.1024 17.7942 18.0512 18.2129 18.1047 18.6218C18.1132 18.6948 18.1243 18.791 18.1595 18.8554C18.2264 18.9748 18.3677 19.0344 18.5075 19.0964C19.233 19.4165 20.6168 20.2088 20.8419 20.316C21.1779 20.4778 21.5356 20.2624 21.7839 20.0884C22.1283 19.8462 22.5117 19.6186 22.816 19.3447C22.9413 19.2327 23.1836 19.0624 23.2067 18.9066ZM12.7874 27.9603C12.8166 28.0054 12.8446 28.0394 12.8896 28.0734C12.9614 28.1282 13.0296 28.1842 13.0977 28.2439C13.6928 28.7659 14.3902 29.1591 15.0815 29.5364C15.2897 29.6508 15.4881 29.7676 15.6998 29.8735C15.9286 29.9867 16.1648 30.0633 16.4105 30.1315C16.5773 30.1778 16.7464 30.2228 16.9194 30.2398C17.0799 30.2557 17.2443 30.2934 17.4062 30.2958C17.4987 30.2971 17.5839 30.2934 17.6739 30.2812C17.6301 30.2107 17.5911 30.1206 17.5534 30.0451C17.4938 29.927 17.433 29.8078 17.372 29.691C17.3014 29.5558 17.2467 29.4146 17.1749 29.2807C17.119 29.1786 17.0459 29.0727 16.9448 29.013C16.8098 28.9327 16.6807 28.8535 16.5335 28.7939C15.9956 28.5749 15.5136 28.2658 15.0134 27.9761C14.7603 27.8288 14.512 27.6718 14.2734 27.5002C14.1456 27.4089 14.0215 27.3141 13.8864 27.2324C13.8584 27.2142 13.8304 27.1923 13.7976 27.1874C13.7683 27.1825 13.7233 27.1837 13.6941 27.1874C13.6674 27.1911 13.6357 27.196 13.6101 27.2009C13.4349 27.2373 13.245 27.2836 13.0637 27.3237C12.8908 27.3627 12.6973 27.3761 12.5318 27.4394C12.4673 27.4637 12.4746 27.5002 12.5002 27.5563C12.5391 27.6439 12.5963 27.7241 12.6559 27.7972C12.6961 27.8496 12.746 27.8982 12.7874 27.9603Z" fill="white"/>
<path d="M14.893 21.0083C14.8518 21.0084 14.8114 20.9967 14.7764 20.9748C14.7416 20.9528 14.7137 20.9215 14.6959 20.8844C14.6781 20.8472 14.6711 20.8057 14.6758 20.7648C14.6805 20.7238 14.6967 20.685 14.7226 20.6529C14.7823 20.58 16.1868 18.8591 18.6988 18.4695C18.7271 18.4653 18.7559 18.4665 18.7837 18.4733C18.8114 18.4803 18.8377 18.4925 18.8607 18.5094C18.8838 18.5264 18.9032 18.5478 18.9181 18.5722C18.9329 18.5966 18.9427 18.6238 18.9471 18.6521C18.9513 18.6804 18.9501 18.7093 18.9432 18.737C18.9363 18.7649 18.9241 18.791 18.9072 18.814C18.8902 18.8371 18.8688 18.8566 18.8443 18.8714C18.8198 18.8863 18.7928 18.8961 18.7645 18.9004C16.4265 19.2644 15.0755 20.911 15.0622 20.9268C15.0184 20.9804 14.9563 21.0083 14.893 21.0083ZM14.3745 28.649C14.3113 28.649 14.248 28.6223 14.2053 28.5687C14.1457 28.4956 12.7619 26.7577 12.9116 24.2214C12.9189 24.101 13.0212 24.0084 13.1416 24.0156C13.2621 24.023 13.3534 24.1264 13.3461 24.2469C13.2074 26.6166 14.5303 28.2778 14.5437 28.2936C14.6204 28.3873 14.6046 28.5249 14.5121 28.6004C14.4718 28.632 14.4232 28.649 14.3745 28.649ZM16.02 29.5059C15.908 29.5059 15.813 29.4207 15.8034 29.3063C15.7936 29.1857 15.8824 29.0799 16.003 29.0702C16.0237 29.069 18.1438 28.8694 19.7528 27.1337C19.7924 27.0914 19.8471 27.0665 19.905 27.0645C19.963 27.0624 20.0193 27.0834 20.0619 27.1229C20.1507 27.2044 20.1555 27.3431 20.0728 27.432C18.3446 29.2942 16.132 29.4973 16.0394 29.5059C16.0321 29.5046 16.0261 29.5059 16.02 29.5059ZM12.9883 20.7467C12.8861 20.7467 12.7948 20.6748 12.7753 20.5702C12.7631 20.5094 12.4881 19.0671 13.0808 17.3584C13.1209 17.2439 13.2439 17.1831 13.3583 17.2233C13.4715 17.2634 13.5323 17.3864 13.4934 17.5008C12.9384 19.1 13.2001 20.4716 13.2037 20.4863C13.2268 20.6042 13.1502 20.7199 13.0309 20.743C13.0175 20.7454 13.0029 20.7467 12.9883 20.7467ZM19.3303 17.1674C19.2854 17.1674 19.2392 17.1527 19.2013 17.1235C19.1905 17.1162 18.0549 16.2922 16.379 16.1084C16.2597 16.0963 16.1721 15.988 16.1856 15.8687C16.1977 15.7482 16.306 15.663 16.4253 15.6752C18.2241 15.8712 19.4095 16.7352 19.4594 16.7717C19.5555 16.8435 19.5762 16.9799 19.5045 17.0773C19.4631 17.1369 19.3973 17.1674 19.3303 17.1674ZM24.8388 20.7174C24.7755 20.7174 24.7122 20.6895 24.6684 20.6359C23.6047 19.3203 22.3024 18.8152 22.2903 18.8103C22.2362 18.7899 22.1924 18.7488 22.1684 18.6962C22.1445 18.6434 22.1423 18.5834 22.1624 18.5293C22.205 18.4161 22.3317 18.36 22.4437 18.4014C22.502 18.4233 23.8701 18.9539 25.0068 20.3608C25.0834 20.4546 25.0676 20.5921 24.9739 20.6676C24.9349 20.7016 24.8862 20.7174 24.8388 20.7174ZM20.9868 23.6676C20.9784 23.6676 20.9673 23.6664 20.9588 23.6652C20.9305 23.6615 20.903 23.6522 20.8782 23.638C20.8533 23.6237 20.8315 23.6046 20.8141 23.5819C20.7967 23.5592 20.7841 23.5332 20.7767 23.5054C20.7694 23.4778 20.7675 23.449 20.7714 23.4205C21.0501 21.3346 20.7763 19.7937 20.7726 19.778C20.7507 19.6599 20.8286 19.5454 20.9479 19.5248C21.0672 19.5016 21.1803 19.5819 21.2022 19.7C21.2132 19.7657 21.4918 21.3248 21.2034 23.4789C21.1888 23.5886 21.0951 23.6676 20.9868 23.6676ZM19.093 25.4494C19.0857 25.4494 19.0809 25.4494 19.0736 25.4482C16.362 25.2084 14.5778 23.6785 14.5023 23.614C14.4588 23.5761 14.432 23.5223 14.4279 23.4646C14.4238 23.4069 14.4427 23.3499 14.4804 23.3061C14.5596 23.2148 14.697 23.2052 14.7883 23.2842C14.8065 23.2989 16.5469 24.7873 19.1125 25.0137C19.1683 25.0189 19.22 25.0454 19.2567 25.0878C19.2935 25.1301 19.3126 25.1848 19.3101 25.2408C19.3076 25.2967 19.2837 25.3497 19.2432 25.3884C19.2028 25.4273 19.1491 25.4491 19.093 25.4494ZM11.3051 22.9483C11.1213 22.9483 10.9205 22.9252 10.7331 22.8535C10.6789 22.8329 10.6351 22.7918 10.6112 22.7392C10.5872 22.6865 10.5851 22.6265 10.6053 22.5722C10.6491 22.4603 10.7732 22.4031 10.8876 22.4445C11.2893 22.5978 11.826 22.4408 11.8321 22.4396C11.9465 22.4056 12.0682 22.4701 12.1023 22.5868C12.1376 22.7012 12.0718 22.823 11.9574 22.8582C11.9392 22.8631 11.652 22.9483 11.3051 22.9483ZM23.2007 24.8105C23.1179 24.8105 23.04 24.763 23.0035 24.6838C22.9524 24.5755 23.0011 24.4453 23.1094 24.3942C23.1215 24.3882 24.3896 23.7882 25.3548 22.4056C25.423 22.3057 25.5593 22.2814 25.6579 22.3508C25.7564 22.4201 25.7808 22.5552 25.7126 22.6537C24.6782 24.1374 23.3491 24.763 23.2932 24.7898C23.2615 24.8031 23.231 24.8105 23.2007 24.8105ZM23.2007 28.4944C23.152 28.4944 23.1032 28.4786 23.0619 28.4471C22.5628 28.0539 22.0797 27.3395 22.059 27.3103C21.9909 27.208 22.0177 27.0693 22.1198 26.9999C22.2209 26.9318 22.3608 26.9585 22.429 27.062C22.4339 27.068 22.894 27.7472 23.3382 28.0965C23.4343 28.1732 23.4514 28.3132 23.3759 28.4105C23.3309 28.4641 23.2664 28.4944 23.2007 28.4944Z" fill="white"/>
<path d="M18.1291 30.6718C13.8523 30.6718 10.374 27.1935 10.374 22.9167C10.374 18.6411 13.8523 15.1616 18.1291 15.1616C22.4058 15.1616 25.8842 18.6411 25.8842 22.9155C25.8842 27.1935 22.4047 30.6718 18.1291 30.6718ZM18.1291 16.0341C14.3344 16.0341 11.2466 19.1219 11.2466 22.9167C11.2466 26.7114 14.3332 29.7992 18.1278 29.7992C21.9227 29.7992 25.0104 26.7114 25.0104 22.9167C25.0117 19.1219 21.9227 16.0341 18.1291 16.0341Z" fill="white"/>
</svg>
