<?xml version="1.0" standalone="no"?>
<!DOCTYPE svg PUBLIC "-//W3C//DTD SVG 20010904//EN"
 "http://www.w3.org/TR/2001/REC-SVG-20010904/DTD/svg10.dtd">
<svg version="1.0" xmlns="http://www.w3.org/2000/svg"
 width="700.000000pt" height="700.000000pt" viewBox="0 0 700.000000 700.000000"
 preserveAspectRatio="xMidYMid meet">
<metadata>
Created by potrace 1.14, written by Peter Selinger 2001-2017
</metadata>
<g transform="translate(0.000000,700.000000) scale(0.100000,-0.100000)"
fill="#000000" stroke="none">
<path d="M1605 6781 c-61 -17 -87 -32 -135 -77 -119 -112 -120 -296 -1 -407
76 -72 163 -98 253 -78 l46 11 482 -338 481 -337 -1053 -5 c-1171 -6 -1091 -2
-1243 -75 -198 -96 -340 -263 -407 -475 l-23 -75 0 -1930 0 -1930 28 -80 c91
-258 273 -431 542 -513 39 -12 123 -16 382 -19 l332 -5 -34 -30 c-44 -38 -54
-84 -29 -135 34 -69 54 -73 342 -73 282 0 307 5 342 62 34 56 24 111 -28 155
l-27 23 1625 0 c1534 -1 1623 -1 1598 -18 -57 -34 -71 -114 -32 -171 33 -46
65 -51 334 -51 280 0 305 5 340 62 35 58 18 133 -38 162 -24 13 12 15 333 19
384 4 387 4 522 60 195 80 353 254 430 472 l28 80 0 1935 0 1935 -28 80 c-75
212 -212 369 -402 460 -155 74 -58 69 -1358 72 -643 2 -1167 7 -1165 11 2 5
86 153 188 329 l185 321 46 6 c231 32 333 304 180 479 -80 90 -230 119 -337
64 -96 -49 -164 -156 -164 -257 0 -21 7 -60 16 -87 l16 -50 -234 -406 -233
-406 -231 -1 -231 0 -644 451 -644 450 -6 67 c-9 111 -62 192 -152 236 -57 28
-144 40 -192 27z m3653 -1739 c267 -82 462 -284 525 -542 17 -67 39 -374 57
-780 30 -682 -6 -2014 -61 -2227 -53 -207 -200 -387 -393 -482 -169 -83 39
-76 -2226 -76 -1921 0 -2018 1 -2079 18 -278 79 -485 289 -546 552 -61 263
-72 2280 -15 2873 18 188 88 341 214 467 110 110 261 189 409 214 29 5 933 8
2047 7 l1995 -1 73 -23z m1298 -607 c35 -22 56 -45 77 -85 25 -49 28 -63 25
-127 -3 -60 -8 -78 -33 -115 -17 -23 -52 -56 -79 -72 -40 -25 -58 -30 -114
-30 -98 0 -172 45 -216 130 -55 110 -5 257 106 313 65 33 168 27 234 -14z m0
-1000 c35 -22 56 -45 77 -85 25 -49 28 -63 25 -127 -3 -60 -8 -78 -33 -115
-17 -23 -52 -56 -79 -72 -40 -25 -58 -30 -114 -30 -98 0 -172 45 -216 130 -55
110 -5 257 106 313 65 33 168 27 234 -14z"/>
<path d="M1133 4866 c-97 -24 -183 -74 -264 -155 -87 -87 -131 -167 -153 -276
-58 -290 -62 -2496 -5 -2858 24 -154 143 -315 287 -390 137 -72 -27 -67 2155
-67 1388 0 1982 3 2019 11 131 27 284 133 358 249 63 98 79 168 95 407 32 486
39 712 39 1223 0 510 -8 753 -39 1220 -15 220 -29 282 -89 385 -41 70 -135
157 -213 197 -138 73 29 68 -2164 67 -1557 -1 -1985 -3 -2026 -13z m2202 -527
c524 -64 970 -433 1128 -935 46 -146 61 -246 60 -414 0 -287 -71 -516 -234
-759 -125 -187 -311 -348 -524 -452 -216 -105 -405 -145 -645 -135 -348 14
-635 136 -886 378 -220 212 -352 467 -401 773 -19 121 -13 361 12 475 37 169
109 337 207 485 65 99 247 283 348 352 277 189 611 271 935 232z"/>
<path d="M3211 4171 c62 -26 71 -27 180 -23 86 4 107 7 84 14 -59 17 -211 38
-270 38 l-60 -1 66 -28z"/>
<path d="M2799 4140 c-152 -50 -313 -143 -421 -242 -47 -42 -48 -46 -63 -132
-8 -49 -15 -124 -15 -167 0 -86 -4 -82 80 -94 25 -4 90 -19 146 -34 l100 -27
50 44 c113 100 275 192 427 242 l67 22 0 68 c0 83 18 217 32 244 15 27 -6 40
-119 76 -117 38 -172 37 -284 0z"/>
<path d="M4000 3866 c0 -5 9 -23 19 -40 11 -17 24 -49 31 -71 10 -33 25 -49
82 -88 41 -29 65 -41 60 -30 -29 54 -191 248 -192 229z"/>
<path d="M2197 3703 c-110 -152 -180 -319 -213 -507 -20 -113 -19 -136 6 -136
22 0 26 8 60 118 26 89 77 188 134 263 l43 55 1 109 c1 59 4 117 8 127 9 29
-2 21 -39 -29z"/>
<path d="M3109 3655 c-131 -45 -272 -127 -375 -216 l-48 -42 -4 -241 c-2 -132
0 -256 5 -275 8 -30 20 -40 98 -82 116 -62 227 -106 350 -137 81 -20 100 -22
103 -11 9 32 222 228 312 288 l95 63 6 57 c9 77 10 255 3 330 l-7 61 -116 64
c-175 96 -319 166 -338 165 -10 0 -48 -11 -84 -24z"/>
<path d="M3938 3580 c-48 -36 -115 -82 -148 -102 l-61 -36 -2 -221 c-1 -142 2
-221 8 -221 42 0 242 -125 316 -197 l46 -44 79 59 c43 33 108 89 143 125 l63
65 -6 73 c-9 96 -22 167 -48 257 -18 63 -29 80 -84 137 -56 58 -165 145 -204
164 -10 5 -43 -13 -102 -59z"/>
<path d="M1973 2893 c11 -185 83 -394 189 -553 87 -130 79 -123 137 -115 28 4
51 10 51 14 0 4 -9 34 -21 67 -26 75 -55 203 -64 275 -5 51 -11 61 -63 115
-76 79 -117 143 -144 226 -22 67 -23 68 -56 68 l-35 0 6 -97z"/>
<path d="M4293 2816 c-40 -34 -101 -79 -136 -101 l-63 -40 -11 -70 c-16 -98
-59 -229 -99 -304 l-35 -63 27 -39 c46 -67 46 -67 111 11 114 139 188 272 236
425 26 85 52 215 46 232 -2 6 -37 -17 -76 -51z"/>
<path d="M2478 2723 l-147 -76 5 -46 c10 -84 36 -195 66 -279 28 -76 35 -86
85 -124 130 -96 413 -248 460 -248 60 1 283 110 382 188 l24 19 -36 84 c-40
95 -84 230 -93 289 l-6 39 -77 16 c-144 32 -380 130 -472 196 -15 10 -31 19
-36 19 -4 0 -74 -35 -155 -77z"/>
<path d="M3850 2170 c-71 -37 -238 -68 -374 -71 -77 -2 -81 -3 -140 -47 -64
-47 -233 -134 -297 -154 l-38 -11 25 -48 24 -49 113 0 c192 0 383 43 539 121
78 39 216 129 245 161 l21 23 -41 47 -42 46 -35 -18z"/>
</g>
</svg>
